<?xml version="1.0" standalone="no"?>
<!DOCTYPE svg PUBLIC "-//W3C//DTD SVG 20010904//EN"
 "http://www.w3.org/TR/2001/REC-SVG-20010904/DTD/svg10.dtd">
<svg version="1.0" xmlns="http://www.w3.org/2000/svg"
 width="700.000000pt" height="700.000000pt" viewBox="0 0 700.000000 700.000000"
 preserveAspectRatio="xMidYMid meet">
<metadata>
Created by potrace 1.11, written by Peter Selinger 2001-2013
</metadata>
<g transform="translate(0.000000,700.000000) scale(0.100000,-0.100000)"
fill="#000000" stroke="none">
<path d="M2345 5935 c-210 -38 -378 -163 -456 -340 -57 -128 -52 -40 -62
-1215 -4 -433 -7 -455 -82 -526 -52 -50 -117 -70 -260 -77 l-40 -2 0 -275 0
-275 60 -3 c193 -9 285 -77 313 -232 7 -33 11 -314 12 -707 0 -643 3 -706 35
-816 33 -113 116 -226 218 -296 137 -93 254 -119 552 -121 l215 -1 0 276 0
275 -57 1 c-179 4 -260 40 -312 139 -49 93 -50 113 -52 765 -1 602 -3 628 -66
748 -54 102 -130 170 -243 217 -75 31 -77 35 -30 49 110 33 230 136 282 242
54 110 57 155 58 744 1 583 2 611 30 697 45 138 144 199 315 195 l75 -2 0 278
0 277 -217 -1 c-129 0 -247 -6 -288 -14z"/>
<path d="M4142 5680 c0 -194 4 -273 12 -275 6 -2 50 -6 98 -9 106 -6 174 -33
223 -87 84 -93 88 -129 90 -794 1 -308 5 -573 8 -590 4 -16 9 -41 12 -54 28
-148 138 -278 284 -337 39 -16 71 -32 71 -35 0 -3 -17 -11 -39 -17 -105 -32
-228 -136 -274 -234 -59 -124 -60 -133 -62 -748 -1 -311 -5 -585 -9 -610 -19
-121 -54 -192 -114 -234 -52 -36 -92 -46 -192 -52 -47 -2 -90 -6 -96 -8 -9 -3
-12 -82 -12 -275 l0 -271 198 0 c109 0 233 5 276 11 181 25 334 111 429 241
41 55 87 158 99 223 4 17 9 41 12 55 4 14 8 326 9 695 1 369 6 686 9 705 29
154 100 218 265 237 31 4 68 6 84 6 21 -1 27 4 27 21 1 31 1 423 0 481 l0 50
-47 2 c-83 4 -136 13 -193 36 -43 17 -62 32 -85 68 -56 83 -58 102 -61 839 -2
371 -5 684 -7 695 -43 242 -163 397 -370 479 -111 44 -191 55 -428 56 l-216 1
-1 -271z"/>
</g>
</svg>
