<svg width="32" height="48" viewBox="0 0 32 48" fill="none" xmlns="http://www.w3.org/2000/svg">
<path fill-rule="evenodd" clip-rule="evenodd" d="M8 0C3.58172 0 0 3.58172 0 8C0 12.4183 3.58172 16 8 16C3.58172 16 0 19.5817 0 24C0 28.4183 3.58172 32 8 32C3.58172 32 0 35.5817 0 40C0 44.4183 3.58172 48 8 48C12.4183 48 16 44.4183 16 40V32V24C16 28.4183 19.5817 32 24 32C28.4183 32 32 28.4183 32 24C32 19.5817 28.4183 16 24 16C28.4183 16 32 12.4183 32 8C32 3.58172 28.4183 0 24 0H8ZM24 16C19.5817 16 16 19.5817 16 24V16H24Z" fill="#09FDD9"/>
</svg>
