<?xml version="1.0" encoding="utf-8"?>
<!-- Generator: Adobe Illustrator 16.0.3, SVG Export Plug-In . SVG Version: 6.00 Build 0)  -->
<!DOCTYPE svg PUBLIC "-//W3C//DTD SVG 1.1//EN" "http://www.w3.org/Graphics/SVG/1.1/DTD/svg11.dtd">
<svg version="1.1" id="Layer_1" xmlns="http://www.w3.org/2000/svg" xmlns:xlink="http://www.w3.org/1999/xlink" x="0px" y="0px"
	 width="293.578px" height="350px" viewBox="103 75 293.578 350" enable-background="new 103 75 293.578 350" xml:space="preserve">
<path fill="#09FDD9" d="M179.183,425c-14.302,0-25.978-4.083-35.025-12.25c-9.05-8.167-13.573-20.271-13.573-36.313v-80.5
	c0-10.209-1.898-17.063-5.692-20.563c-3.795-3.792-11.092-5.688-21.892-5.688v-39.375c10.8,0,18.097-1.75,21.892-5.25
	c3.794-3.792,5.692-10.792,5.692-21v-80.501c0-16.041,4.523-28.146,13.573-36.312C153.205,79.083,164.881,75,179.183,75h24.52
	v39.375h-7.006c-7.881,0-13.719,2.333-17.514,7c-3.794,4.375-5.69,12.396-5.69,24.063v65.625c0,20.416-8.903,33.25-26.708,38.5
	v0.875c17.805,5.25,26.708,18.083,26.708,38.5v65.625c0,11.666,1.896,19.834,5.69,24.5c3.795,4.375,9.633,6.563,17.514,6.563h7.006
	V425H179.183z"/>
<path fill="#09FDD9" d="M295.877,385.625h7.005c7.881,0,13.719-2.188,17.514-6.563c3.794-4.666,5.692-12.834,5.692-24.5v-65.625
	c0-20.416,8.901-33.25,26.708-38.5v-0.875c-17.807-5.25-26.708-18.084-26.708-38.5v-65.625c0-11.667-1.898-19.688-5.692-24.063
	c-3.795-4.667-9.633-7-17.514-7h-7.005V75h24.519c14.302,0,25.978,4.083,35.027,12.25c9.048,8.167,13.572,20.271,13.572,36.312
	v80.501c0,10.208,1.897,17.208,5.691,21c3.795,3.5,11.092,5.25,21.892,5.25v39.375c-10.8,0-18.097,1.896-21.892,5.688
	c-3.794,3.5-5.691,10.354-5.691,20.563v80.5c0,16.041-4.524,28.146-13.572,36.313c-9.05,8.167-20.726,12.25-35.027,12.25h-24.519
	V385.625z"/>
</svg>
