<svg width="119" height="33" viewBox="0 0 119 33" fill="none" xmlns="http://www.w3.org/2000/svg">
<path d="M14.4501 13.0538C12.7255 5.48132 8.68152 3.00327 8.24531 2.05183C7.76959 1.37787 7.2739 0.188241 7.2739 0.188241L7.27694 0.381923C7.22504 0.190853 7.18422 0.0603607 7.15643 0C7.13646 0.654197 7.09694 0.931899 6.4625 1.60585C5.47154 2.37904 0.436203 6.60146 0.0199753 15.2048C-2.05449e-07 15.4428 0 15.6805 0 15.8985C0 23.9621 6.56498 28.5443 6.73217 28.6594C7.3373 30.0505 7.2739 32.4413 7.2739 32.4413L8.14609 32.7387C8.14609 32.7387 7.96783 30.4192 8.22534 29.3092C8.3022 28.979 8.47264 28.6885 8.67305 28.4416C8.81309 28.3439 9.23084 28.0404 9.78603 27.5277C9.78733 27.5271 9.79146 27.5249 9.79146 27.5249C9.79146 27.5243 9.79146 27.5236 9.79146 27.5227C11.8507 25.6196 15.7865 20.8496 14.4501 13.0538Z" fill="white"/>
<path d="M89.76 11.2695C90.1763 11.2695 91.7226 11.3488 92.4361 11.3488C93.7842 11.3488 94.7159 11.2695 97.2337 11.2695C99.335 11.2695 101.119 11.8445 102.388 12.9546C103.914 14.3025 104.747 16.1661 104.747 18.4457C104.747 21.677 103.28 23.5603 101.813 24.611C100.346 25.7211 98.4624 26.3356 95.7466 26.3356C94.2995 26.3356 91.8414 26.2959 89.7798 26.2563H89.7598C89.6608 26.0581 89.9383 25.3247 90.0968 25.3047C90.652 25.2454 90.8105 25.2254 91.0684 25.1065C91.5044 24.9282 91.6036 24.7102 91.6629 23.917C91.7422 22.4302 91.7026 20.6463 91.7026 18.644C91.7026 17.1968 91.7226 14.4018 91.6829 13.5098C91.6036 12.7764 91.3064 12.5781 90.672 12.4392C90.3547 12.3599 89.9185 12.3004 89.3238 12.2212C89.2643 12.0627 89.6411 11.4083 89.76 11.2695ZM94.5376 24.6108C95.0331 25.0272 96.0441 25.1855 96.9362 25.1855C98.0861 25.1855 99.216 24.9675 100.326 23.9566C101.456 22.9257 102.229 21.3398 102.229 18.8224C102.229 16.4037 101.317 14.4413 99.454 13.2719C98.4033 12.5979 97.0354 12.3402 95.4693 12.3402C95.0131 12.3402 94.5574 12.3599 94.2997 12.4789C94.2204 12.5187 94.0815 12.7169 94.0815 12.8159C94.0417 13.2521 94.0417 16.5428 94.0417 18.4855C94.0417 20.4678 94.0417 23.2631 94.0815 23.6C94.0815 23.8775 94.24 24.393 94.5376 24.6108Z" fill="white"/>
<path d="M106.749 11.2695C106.967 11.2695 107.601 11.3488 109.227 11.3488C110.753 11.3488 112.002 11.309 113.489 11.309C115.333 11.309 117.87 11.983 117.87 14.7585C117.87 16.1264 116.918 17.2363 115.67 17.7518C115.59 17.7716 115.59 17.831 115.67 17.8508C117.454 18.307 119 19.4169 119 21.5183C119 23.5801 117.731 24.8687 115.888 25.7012C114.758 26.1966 113.37 26.3751 111.963 26.3751C110.892 26.3751 107.998 26.2561 106.392 26.2759C106.214 26.1966 106.551 25.4434 106.689 25.3244C107.066 25.3045 107.363 25.265 107.78 25.146C108.354 25.0072 108.414 24.809 108.493 23.9566C108.533 23.2031 108.533 20.5468 108.533 18.6637C108.533 16.0667 108.553 14.3223 108.533 13.4499C108.513 12.7759 108.275 12.5579 107.819 12.439C107.462 12.3597 106.868 12.3002 106.372 12.221C106.273 12.0822 106.63 11.3688 106.749 11.2695ZM116.542 22.0337C116.542 19.9324 115.015 18.7232 112.2 18.7232C112.081 18.7232 111.189 18.7034 110.971 18.7432C110.892 18.7629 110.832 18.8224 110.832 18.8622C110.832 20.3686 110.813 22.7871 110.872 23.7585C110.912 24.1748 111.209 24.7497 111.566 24.9084C111.942 25.1264 112.815 25.1662 113.409 25.1662C115.075 25.1857 116.542 24.254 116.542 22.0337ZM111.09 12.4392C110.991 12.4592 110.872 12.6971 110.872 12.8157C110.852 13.6881 110.832 15.9282 110.832 17.4943C110.832 17.534 110.912 17.6133 110.951 17.6133C111.269 17.633 112.022 17.653 112.676 17.653C113.588 17.653 114.123 17.534 114.401 17.3951C115.174 17.0186 115.531 16.1661 115.531 15.2542C115.531 13.1726 114.083 12.3799 111.962 12.3799C111.804 12.3994 111.407 12.3994 111.09 12.4392Z" fill="white"/>
<path d="M20.9521 26.3157C20.9124 26.2564 20.8729 26.058 20.8729 25.8402C20.8729 25.6617 20.9126 25.5627 20.9521 25.523C21.4081 25.4437 21.6261 25.404 21.864 25.3247C22.2803 25.2255 22.4388 24.9875 22.4785 24.4328C22.5578 23.1442 22.5578 20.7058 22.5182 19.001V18.9417C22.5182 18.7632 22.5182 18.5055 22.3002 18.327C21.9631 18.109 21.5468 17.9306 21.0314 17.7523C20.8331 17.693 20.7141 17.5938 20.7341 17.4551C20.7341 17.3361 20.8729 17.1776 21.1306 17.1378C21.8243 17.0586 23.6482 16.6224 24.3618 16.2854C24.4016 16.3447 24.4808 16.4439 24.4609 16.6224C24.4609 16.7016 24.4411 16.7809 24.4411 16.8603C24.4211 17.0983 24.4014 17.3758 24.4014 17.6533C24.4014 17.7325 24.4806 17.8116 24.5796 17.8116C24.6194 17.8116 24.6788 17.7918 24.6986 17.7523C26.0665 16.6817 27.2757 16.2854 27.9101 16.2854C28.9408 16.2854 29.7337 16.7809 30.3682 17.8116C30.4079 17.8711 30.4474 17.8908 30.5069 17.8908C30.5664 17.8908 30.6061 17.8711 30.6459 17.8116C31.8948 16.8601 33.1437 16.2854 33.9761 16.2854C35.9387 16.2854 37.1084 17.7723 37.1084 20.2701C37.1084 20.9836 37.1084 21.8955 37.0884 22.7479C37.0884 23.4814 37.0686 24.195 37.0686 24.6708C37.0686 24.7897 37.2271 25.107 37.4651 25.1862C37.7426 25.325 38.1588 25.4042 38.694 25.4835H38.714C38.7537 25.6222 38.6743 26.1772 38.595 26.2962C38.4561 26.2962 38.2778 26.2764 38.0598 26.2764C37.6434 26.2564 37.0882 26.2169 36.4342 26.2169C35.126 26.2169 34.4519 26.2369 33.7977 26.2764C33.7579 26.1179 33.7382 25.5825 33.7977 25.4635C34.1741 25.3842 34.3724 25.3445 34.5904 25.2652C35.0068 25.1265 35.1258 24.9283 35.1456 24.3733C35.1456 23.9768 35.2248 20.4879 35.1058 19.6554C34.9868 18.803 34.3327 17.792 32.9452 17.792C32.4298 17.792 31.5773 18.01 30.7844 18.6247C30.7251 18.6644 30.7051 18.7634 30.7051 18.8229V18.8427C30.8044 19.2987 30.8044 19.8141 30.8044 20.6071C30.8044 21.063 30.8044 21.5387 30.8044 22.0145C30.8044 22.9859 30.7844 23.8778 30.8044 24.5715C30.8044 25.0473 31.0816 25.1465 31.2999 25.2455C31.4188 25.2655 31.5178 25.3048 31.6171 25.3247C31.8153 25.3645 31.9936 25.4238 32.291 25.4635C32.3308 25.5627 32.3308 25.8402 32.2713 26.0582C32.2315 26.1971 32.2118 26.2564 32.192 26.2564C31.4586 26.2367 30.7251 26.2167 29.6545 26.2167C29.3373 26.2167 28.802 26.2367 28.3263 26.2367C27.9498 26.2564 27.5929 26.2564 27.3747 26.2564C27.3349 26.2167 27.2954 26.0582 27.2954 25.8402C27.2954 25.642 27.3352 25.503 27.3747 25.4437C27.4739 25.4238 27.5729 25.404 27.6721 25.3842C27.9299 25.3445 28.1479 25.305 28.3461 25.2455C28.7028 25.1265 28.8416 24.9283 28.8613 24.4723C28.9406 23.4017 28.9803 20.3291 28.8416 19.556C28.5836 18.3268 27.8899 17.6926 26.78 17.6926C26.1256 17.6926 25.2931 18.0098 24.6191 18.525C24.5002 18.6043 24.4209 18.8225 24.4209 19.0207C24.4209 19.3775 24.4209 19.8135 24.4209 20.2894C24.4209 21.8355 24.4011 23.7586 24.4409 24.5913C24.4606 24.849 24.5599 25.1465 25.0354 25.2652C25.1346 25.3048 25.3129 25.3245 25.5311 25.3643C25.65 25.384 25.7888 25.404 25.9076 25.4235C25.9473 25.5625 25.9275 26.0779 25.8483 26.2365C25.6301 26.2365 25.3921 26.2165 25.0949 26.2165C24.6389 26.1967 24.0839 26.1767 23.4495 26.1767C22.6961 26.1767 22.1808 26.1967 21.7644 26.2165C21.4281 26.2959 21.1901 26.3157 20.9521 26.3157Z" fill="white"/>
<path d="M45.1172 26.5339C41.5093 26.5339 40.2206 23.8576 40.2206 21.3598C40.2206 19.6155 40.9343 18.2476 42.322 17.2961C43.3131 16.6814 44.5025 16.3247 45.5732 16.3247C48.3285 16.3247 50.2516 18.3268 50.2516 21.1814C50.2516 23.124 49.4784 24.6703 48.0313 25.6218C47.3375 26.0582 46.1284 26.5339 45.1172 26.5339ZM44.7405 17.3359C44.3043 17.3359 43.8881 17.4548 43.5908 17.6529C42.7582 18.1683 42.3419 19.1792 42.3419 20.6861C42.3419 23.5011 43.7296 25.4635 45.7317 25.4635C46.3264 25.4635 46.8021 25.2852 47.1986 24.9483C47.8133 24.4328 48.1303 23.4019 48.1303 21.9548C48.1303 19.1992 46.7624 17.3359 44.7405 17.3359Z" fill="white"/>
<path d="M82.4451 26.5339C78.8371 26.5339 77.5485 23.8576 77.5485 21.3598C77.5485 19.6155 78.2622 18.2476 79.6498 17.2961C80.641 16.6814 81.8304 16.3247 82.9011 16.3247C85.6564 16.3247 87.5794 18.3268 87.5794 21.1814C87.5794 23.124 86.8063 24.6703 85.3591 25.6218C84.6654 26.0582 83.456 26.5339 82.4451 26.5339ZM82.0684 17.3359C81.6322 17.3359 81.2159 17.4548 80.9187 17.6529C80.086 18.1683 79.6698 19.1792 79.6698 20.6861C79.6698 23.5011 81.0574 25.4635 83.0596 25.4635C83.6543 25.4635 84.13 25.2852 84.5264 24.9483C85.1411 24.4328 85.4581 23.4019 85.4581 21.9548C85.4384 19.1992 84.0902 17.3359 82.0684 17.3359Z" fill="white"/>
<path d="M69.9958 32.2827C68.7072 32.2827 67.7755 32.0052 66.9826 31.3905C66.2094 30.776 65.8526 29.8841 65.8526 29.2694C65.8526 29.0909 65.8924 28.635 66.2689 28.1988C66.4871 27.941 67.0223 27.4453 68.2315 26.6129C68.2712 26.5929 68.2907 26.5534 68.2907 26.5137C68.2907 26.4544 68.251 26.4146 68.2115 26.4146C67.2205 26.0382 66.9229 25.4037 66.8238 25.0468C66.8238 25.0268 66.8238 25.007 66.8041 24.9873C66.7841 24.8485 66.7446 24.7295 66.9229 24.591C67.0618 24.4918 67.2798 24.353 67.5176 24.2143C67.8745 23.9963 68.271 23.7783 68.489 23.5801C68.5287 23.5404 68.5287 23.5008 68.5287 23.4411C68.5287 23.3818 68.489 23.3421 68.4495 23.3221C66.9826 22.8267 66.2291 21.7163 66.2291 20.0316C66.2291 18.9412 66.7248 17.9698 67.597 17.3356C68.1917 16.8599 69.6786 16.2849 70.63 16.2849H70.6895C71.6805 16.3047 72.2357 16.5227 73.0089 16.8001C73.4253 16.9586 73.8218 17.0184 74.3767 17.0184C75.1897 17.0184 75.5464 16.7604 75.8636 16.4632C75.8836 16.5029 75.9231 16.6217 75.9429 16.8994C75.9628 17.1769 75.8836 17.5931 75.6851 17.8903C75.5266 18.1283 75.1299 18.2868 74.7535 18.2868C74.7137 18.2868 74.6742 18.2868 74.6542 18.2868C74.2777 18.2471 74.099 18.1878 74.099 18.1878L74 18.2275C73.9803 18.2673 73.9803 18.3265 74.02 18.386C74.02 18.4058 74.0398 18.4058 74.0398 18.4258C74.0795 18.624 74.1785 19.179 74.1785 19.3375C74.1785 21.1018 73.4848 21.875 72.7514 22.45C72.0377 22.9852 71.2052 23.3221 70.2735 23.4214C70.2535 23.4214 70.1743 23.4214 69.996 23.4411C69.8771 23.4611 69.7381 23.4611 69.7186 23.4611H69.6986C69.5401 23.5008 69.1238 23.7188 69.1238 24.0953C69.1238 24.4125 69.3221 24.7893 70.234 24.8687C70.4123 24.8885 70.6105 24.8885 70.8285 24.9085C72.0377 24.9877 73.5445 25.1067 74.2382 25.3444C75.2096 25.7014 75.8241 26.5933 75.8241 27.644C75.8241 29.2301 74.7142 30.7168 72.8508 31.6287C71.9187 32.0844 70.987 32.2827 69.9958 32.2827ZM69.8571 26.7121C69.4408 26.7121 69.1436 26.8311 68.9651 26.9303C68.0927 27.505 67.6765 28.0602 67.6765 28.7342C67.6765 29.3489 67.9145 29.8443 68.4299 30.2806C69.0444 30.8158 69.8771 31.0733 70.9675 31.0733C73.1281 31.0733 74.0797 29.9036 74.0797 28.7342C74.0797 27.9215 73.6832 27.3863 72.8508 27.0691C72.2161 26.8511 71.1655 26.7121 69.8571 26.7121ZM69.9958 17.2563C68.8857 17.2563 68.172 18.1483 68.172 19.5162C68.172 20.9038 68.7867 22.5294 70.531 22.5294C70.8283 22.5294 71.3637 22.3905 71.6412 22.0932C72.0374 21.7165 72.3151 20.9433 72.3151 20.1306C72.3151 18.307 71.443 17.2563 69.9958 17.2563Z" fill="white"/>
<path d="M64.148 25.4237C63.6126 25.3444 63.2361 25.2849 62.7801 25.0667C62.7009 25.0272 62.6016 24.809 62.6016 24.7297C62.5619 23.9963 62.5619 21.8355 62.5619 20.4083C62.5619 19.2584 62.3637 18.2475 61.8879 17.534C61.3132 16.7211 60.5001 16.2454 59.4496 16.2454C58.518 16.2454 57.269 16.8996 56.2384 17.7717C56.2184 17.7915 56.0599 17.95 56.0599 17.7123C56.0599 17.4745 56.0996 16.9986 56.1194 16.7013C56.1391 16.4041 55.9609 16.2651 55.9609 16.2651C55.2869 16.6021 53.4036 17.0581 52.6901 17.1375C52.1746 17.2365 52.0357 17.732 52.5909 17.9107C53.1656 18.089 53.5425 18.2677 53.82 18.4659C54.038 18.6244 54.0183 18.8821 54.0183 19.0604C54.038 20.6662 54.038 23.1443 53.9785 24.4724C53.9586 25.0076 53.82 25.1859 53.4233 25.2851L53.4631 25.2652C53.1656 25.3444 52.9276 25.3841 52.5711 25.4237C52.4521 25.5426 52.4521 26.2364 52.5711 26.3753C52.8091 26.3753 54.038 26.2961 55.0489 26.2961C56.4368 26.2961 57.1503 26.3753 57.527 26.3753C57.6657 26.1968 57.7252 25.5626 57.626 25.4237C57.2098 25.4039 56.9323 25.3444 56.6348 25.2849C56.2583 25.1857 56.1593 24.9875 56.1394 24.5712C56.0996 23.4413 56.0996 21.0427 56.0996 19.4171C56.0996 18.9612 56.2186 18.7432 56.3576 18.6244C56.8331 18.1882 57.6262 17.9107 58.3199 17.9107C58.9939 17.9107 59.4498 18.1287 59.787 18.4062C60.243 18.7829 60.4015 19.3379 60.461 19.7543C60.5602 20.666 60.5402 22.4899 60.5402 24.0757C60.5402 24.9479 60.461 25.1462 60.1638 25.2454C60.025 25.3247 59.6285 25.3841 59.1726 25.4436C59.0338 25.5824 59.0736 26.2563 59.1726 26.3951C59.7873 26.3951 60.5207 26.3158 61.5714 26.3158C62.8995 26.3158 63.732 26.3951 64.0692 26.3951C64.1875 26.2166 64.247 25.6021 64.148 25.4237Z" fill="white"/>
</svg>
