<svg width="89" height="46" viewBox="0 0 89 46" fill="none" xmlns="http://www.w3.org/2000/svg">
<path d="M0 41.6802H2.91925V30.1525L7.43838 40.2019C7.97167 41.4181 8.7016 41.8486 10.133 41.8486C11.5647 41.8486 12.2664 41.4183 12.8 40.2019L17.3191 30.1525V41.6799H20.2383V30.1714C20.2383 29.0484 19.7892 28.5058 18.8631 28.2253C16.6455 27.5329 15.1577 28.1316 14.484 29.6288L10.0489 39.5468L5.75439 29.6288C5.1088 28.1316 3.59303 27.5329 1.37552 28.2253C0.449185 28.5058 0 29.0486 0 30.1712V41.6802V41.6802ZM22.6657 32.2973H25.584V38.6482C25.5567 38.9932 25.6947 39.8029 27.2939 39.828C28.1098 39.8409 33.5907 39.828 33.6418 39.828V32.2664H36.567C36.5804 32.2664 36.564 42.5785 36.5643 42.6224C36.5802 45.1657 33.4086 45.7181 31.9467 45.7608H22.7289V43.7967C22.7452 43.7967 31.9399 43.7988 31.9631 43.7965C33.8419 43.5981 33.62 42.6642 33.6198 42.3498V41.5842H27.4148C24.5279 41.5576 22.6898 40.2976 22.667 38.8484C22.6648 38.7141 22.7293 32.3607 22.6654 32.2971L22.6657 32.2973Z" fill="white"/>
<path d="M38.8168 41.68H47.2095C48.192 41.68 49.1463 41.4743 49.9044 41.1186C51.1674 40.5387 51.785 39.7528 51.785 38.7233V36.5901C51.785 35.7479 51.0833 34.9618 49.7077 34.4381C48.9778 34.1571 48.0797 34.0075 47.2095 34.0075H43.6724C42.494 34.0075 41.9325 33.652 41.7922 32.8661C41.764 32.7725 41.764 32.6975 41.764 32.604V31.2756C41.764 31.2006 41.764 31.1255 41.7922 31.0321C41.9325 30.4334 42.2414 30.2647 43.2798 30.1713C43.3639 30.1713 43.4762 30.1524 43.5605 30.1524H51.8973V28.2065H43.7008C42.5219 28.2065 41.9043 28.2813 41.343 28.4495C39.6027 28.9924 38.8448 29.8532 38.8448 31.3501V33.0532C38.8448 34.3633 40.3326 35.486 42.8306 35.7479C43.1116 35.7665 43.3921 35.7852 43.6726 35.7852H46.7042C46.8167 35.7852 46.929 35.7852 47.0131 35.804C47.9394 35.879 48.3322 36.0473 48.6132 36.3842C48.7814 36.5524 48.8376 36.721 48.8376 36.9081V38.6108C48.8376 38.8169 48.6973 39.079 48.4168 39.3034C48.164 39.528 47.743 39.6778 47.1815 39.7153C47.0692 39.7153 46.9851 39.7339 46.8728 39.7339H38.8166V41.6798L38.8168 41.68ZM69.9961 38.293C69.9961 40.2952 71.4837 41.4182 74.4873 41.6428C74.7678 41.6614 75.0487 41.68 75.3293 41.68H82.9363V39.7339H75.2731C73.5609 39.7339 72.9153 39.3034 72.9153 38.2743V28.2063H69.9961V38.293ZM53.6481 38.395V31.4565C53.6481 29.6939 54.8859 28.6248 57.3328 28.2872C57.5937 28.25 57.8569 28.2312 58.1204 28.2311H63.6616C63.9428 28.2311 64.1962 28.2499 64.4774 28.2872C66.9245 28.6248 68.1621 29.6939 68.1621 31.4565V38.3948C68.1621 39.8246 67.6365 40.5903 66.4251 41.089L69.3007 43.6845H65.9111L63.5847 41.5846L61.2427 41.733H58.1204C57.586 41.733 57.0236 41.6578 56.4046 41.4891C54.5483 40.9828 53.6481 40.0076 53.6481 38.3948V38.395ZM56.7988 38.2264C56.7988 38.3202 56.827 38.4139 56.8552 38.5264C57.0238 39.3327 57.7833 39.7828 58.9365 39.7828H61.5886L59.1525 37.5835H62.5418L64.6668 39.5016C65.0582 39.2929 65.316 38.9738 65.406 38.5639C65.434 38.4703 65.434 38.3764 65.434 38.2827V31.6257C65.434 31.5506 65.434 31.4568 65.406 31.3629C65.2371 30.6127 64.4777 30.1817 63.3527 30.1817H58.9365C57.6428 30.1817 56.799 30.7443 56.799 31.6257V38.2264H56.7988Z" fill="white"/>
<path d="M85.5043 24.978C83.7101 24.9294 82.3394 25.0962 81.1675 25.5904C80.8345 25.7309 80.3035 25.7345 80.2491 26.1519C80.4321 26.3437 80.4606 26.6302 80.606 26.8661C80.8856 27.3189 81.3582 27.9257 81.7797 28.2439C82.2402 28.5917 82.7149 28.9634 83.2086 29.2646C84.0868 29.7999 85.0672 30.1057 85.9128 30.6421C86.4111 30.9584 86.9062 31.3566 87.3925 31.7135C87.6327 31.8899 87.7944 32.1643 88.1067 32.275V32.2238C87.9426 32.0149 87.9003 31.7276 87.7496 31.5094L87.0863 30.8461C86.4377 29.9852 85.6144 29.2291 84.7392 28.601C84.0413 28.1 82.4792 27.4235 82.188 26.6111L82.1368 26.5599C82.6317 26.5042 83.2111 26.3251 83.6678 26.203C84.435 25.9971 85.1204 26.0503 85.9128 25.8457C86.2697 25.7436 86.6271 25.6413 86.9844 25.5395V25.3354C86.5839 24.9244 86.2984 24.3806 85.8615 24.0087C84.7192 23.0358 83.4721 22.0638 82.188 21.2534C81.4758 20.8037 80.5956 20.5116 79.8409 20.1306C79.587 20.0026 79.1407 19.936 78.9732 19.7224C78.5768 19.217 78.3608 18.5762 78.0548 17.9874C77.4145 16.7542 76.7855 15.4071 76.2181 14.1094C75.8309 13.2246 75.5782 12.3522 75.0956 11.5581C72.7787 7.74893 70.2848 5.45004 66.4215 3.19002C65.5995 2.70946 64.6097 2.51942 63.5638 2.27164L61.8801 2.16935C61.5375 2.02613 61.1811 1.60718 60.8594 1.40396C59.5796 0.595606 56.2971 -1.16317 55.3491 1.1489C54.7506 2.6083 56.2437 4.03247 56.7776 4.77194C57.1525 5.29068 57.6324 5.87217 57.9001 6.4557C58.0763 6.83919 58.1068 7.22359 58.2575 7.62936C58.6285 8.62889 58.9508 9.71616 59.4309 10.6398C59.6735 11.1071 59.9408 11.5995 60.2474 12.0173C60.4354 12.274 60.7576 12.3869 60.8085 12.7829C60.4934 13.2239 60.4754 13.9082 60.2984 14.4667C59.5009 16.9813 59.8017 20.1065 60.9617 21.9676C61.3177 22.5389 62.156 23.7641 63.3088 23.2942C64.3172 22.8835 64.0919 21.6107 64.3804 20.488C64.4456 20.2334 64.4054 20.0461 64.5333 19.8756V19.9267L65.4517 21.7635C66.1314 22.858 67.338 24.0021 68.3603 24.7741C68.8904 25.1744 69.3078 25.8666 69.9931 26.1007V26.0496H69.942C69.8092 25.8427 69.6015 25.7568 69.4319 25.5904C69.0325 25.199 68.5885 24.7123 68.2582 24.2638C67.3285 23.0014 66.5067 21.62 65.7581 20.1818C65.4006 19.4953 65.0898 18.7374 64.7884 18.0386C64.6722 17.7692 64.6736 17.3619 64.4315 17.2221C64.1014 17.7342 63.6152 18.1484 63.3599 18.7531C62.9517 19.7196 62.8989 20.8983 62.7477 22.1206C62.6582 22.1526 62.6977 22.1306 62.6455 22.1715C61.9348 22.0001 61.685 21.2686 61.4211 20.641C60.7528 19.0538 60.6289 16.498 61.2165 14.6711C61.3688 14.1982 62.0562 12.7093 61.778 12.2728C61.6452 11.8371 61.207 11.585 60.9617 11.2522C60.6582 10.8405 60.3552 10.2986 60.1452 9.82323C59.5984 8.58569 59.3432 7.19654 58.7676 5.94559C58.4925 5.34751 58.0272 4.74239 57.6451 4.21068C57.222 3.62192 56.7483 3.18774 56.4205 2.47555C56.3039 2.22254 56.1454 1.81745 56.3182 1.55717C56.3735 1.38168 56.451 1.30826 56.6246 1.25097C56.9206 1.02297 57.7449 1.3269 58.0531 1.45511C58.8715 1.79495 59.5543 2.11865 60.2474 2.57761C60.5802 2.79834 60.9167 3.22502 61.3188 3.34323H61.778C62.4963 3.50826 63.301 3.39438 63.9721 3.59828C65.1583 3.95881 66.2212 4.51939 67.1864 5.12906C70.1277 6.98604 72.5323 9.62955 74.1772 12.7829C74.4418 13.2905 74.5564 13.7752 74.7894 14.3137C75.2597 15.3999 75.8521 16.5174 76.3199 17.5794C76.7868 18.6387 77.2419 19.7083 77.9018 20.59C78.249 21.0535 79.589 21.3022 80.1978 21.5593C80.6249 21.7398 81.3244 21.9278 81.7288 22.1715C82.5012 22.6375 83.2495 23.1922 83.974 23.7025C84.3361 23.9576 85.4491 24.517 85.5046 24.978H85.5043Z" fill="white"/>
<path fill-rule="evenodd" clip-rule="evenodd" d="M62.6966 5.53727C62.3224 5.53045 62.0578 5.57819 61.778 5.63911V5.69026H61.8291C62.0075 6.05693 62.3224 6.29288 62.5433 6.60863C62.7133 6.96589 62.8834 7.32309 63.0537 7.68022L63.1046 7.6293C63.4206 7.40653 63.5654 7.05032 63.5638 6.50679C63.4372 6.37358 63.4183 6.20628 63.3087 6.04738C63.1628 5.83552 62.8805 5.71549 62.6966 5.53727V5.53727Z" fill="white"/>
<path fill-rule="evenodd" clip-rule="evenodd" d="M84.3063 39.6785C84.3063 40.9637 85.322 41.8298 86.4579 41.8298C87.5938 41.8298 88.6093 40.9637 88.6093 39.6785C88.6093 38.3934 87.5938 37.5273 86.4579 37.5273C85.322 37.5273 84.3066 38.3934 84.3066 39.6785H84.3063ZM88.1274 39.6785C88.1274 40.6537 87.3818 41.3825 86.4579 41.3825C85.523 41.3825 84.7885 40.6537 84.7885 39.6785C84.7885 38.7033 85.5227 37.9745 86.4579 37.9745C87.3818 37.9745 88.1274 38.7033 88.1274 39.6785ZM87.0376 40.906H87.5193L86.8139 39.8278C87.1924 39.7876 87.479 39.6039 87.479 39.1566C87.479 38.6574 87.1638 38.4509 86.5557 38.4509H85.5975V40.906H86.0106V39.8449H86.3947L87.0376 40.9062V40.906ZM86.0106 39.5007V38.7951H86.4866C86.7334 38.7951 87.0317 38.841 87.0317 39.1279C87.0317 39.4718 86.7621 39.5007 86.452 39.5007H86.0106V39.5007Z" fill="white"/>
</svg>
